<?xml version="1.0" standalone="no"?><!DOCTYPE svg PUBLIC "-//W3C//DTD SVG 1.1//EN" "http://www.w3.org/Graphics/SVG/1.1/DTD/svg11.dtd"><svg class="icon" width="48px" height="48.00px" viewBox="0 0 1024 1024" version="1.1" xmlns="http://www.w3.org/2000/svg"><path d="M511.500898 65.090261c-246.960161 0-447.162024 200.087341-447.162024 446.908996 0 246.820456 200.201863 446.907797 447.162024 446.907797s447.159826-200.087341 447.159826-446.907797C958.660724 265.177402 758.464457 65.090261 511.500898 65.090261zM753.643526 670.966477c0 4.515738-2.826484 8.410498-6.788198 9.358255l-219.52796 52.556567c-10.609207 2.543875-21.579369 2.56666-32.199769 0.080545l-217.170358-50.860716c-3.898157-0.91498-6.722442-4.689421-6.825772-9.119817l-3.751656-161.217295c-0.116921-5.057171 3.316951-9.340067 7.842883-9.783966l184.471928-18.045565c3.197832-0.313188 5.974349-2.583648 7.200318-5.892605l27.786361-75.142853c3.587168-9.698824 16.551578-6.84396 16.551578 3.643929l0 280.449455 200.544631-42.373071 0-136.642157c0-5.718923 4.471368-10.163109 9.573909-9.51375l24.673871 4.255715c4.339658 0.549427 7.615637 4.647249 7.615637 9.506954l0 158.740374L753.643526 670.966477zM808.558893 466.462331l-216.996676-19.430426c-3.11149-0.279211-5.841639-2.409966-7.133364-5.57482l-74.020214-180.940522-69.952772 175.45664c-1.252151 3.145467-3.921941 5.293211-6.992659 5.641775l-217.404 24.455819c-6.642896 0.745694-11.484414-6.848357-8.654532-13.582191l57.888552-137.763796c1.1794-2.806097 3.500826-4.802944 6.235372-5.362564l238.880039-48.846882 243.769324 48.848081c2.776518 0.557422 5.129722 2.59604 6.301328 5.453303l56.589832 138.125751C819.788879 459.591189 815.096261 467.046934 808.558893 466.462331z" fill="#13227a" /></svg>