<?xml version="1.0" standalone="no"?><!DOCTYPE svg PUBLIC "-//W3C//DTD SVG 1.1//EN" "http://www.w3.org/Graphics/SVG/1.1/DTD/svg11.dtd"><svg class="icon" width="16px" height="16.00px" viewBox="0 0 1024 1024" version="1.1" xmlns="http://www.w3.org/2000/svg"><path d="M870.44096 800.1536l-176.41472-176.49664c-2.08896-2.08896-4.34176-3.60448-6.47168-5.28384 29.77792-45.71136 47.14496-100.18816 47.14496-158.9248 0-161.21856-130.62144-291.84-291.88096-291.84-161.13664 0-291.88096 130.62144-291.88096 291.84 0 161.25952 130.74432 291.88096 291.88096 291.88096 58.65472 0 113.21344-17.44896 159.00672-47.26784 1.67936 2.2528 3.19488 4.38272 5.24288 6.47168l176.45568 176.49664c12.00128 12.00128 27.72992 17.94048 43.45856 17.94048s31.41632-5.9392 43.45856-17.94048C894.3616 863.0272 894.3616 824.15616 870.44096 800.1536M442.85952 659.21024c-110.10048 0-199.68-89.62048-199.68-199.72096s89.62048-199.68 199.68-199.68 199.72096 89.62048 199.72096 199.68S552.91904 659.21024 442.85952 659.21024" fill="#d81e06" /></svg>