<?xml version="1.0" standalone="no"?><!DOCTYPE svg PUBLIC "-//W3C//DTD SVG 1.1//EN" "http://www.w3.org/Graphics/SVG/1.1/DTD/svg11.dtd"><svg class="icon" width="16px" height="16.00px" viewBox="0 0 1024 1024" version="1.1" xmlns="http://www.w3.org/2000/svg"><path d="M998.67 401.934q0 12.842-15.139 27.981l-211.478 206.257 50.116 291.298q0.574 4.072 0.574 11.642 0 12.216-6.107 20.673t-17.749 8.457q-11.067 0-23.283-6.996l-261.594-137.505-261.594 137.505q-12.842 6.996-23.283 6.996-12.216 0-18.375-8.457t-6.107-20.673q0-3.497 1.148-11.642l50.116-291.298-212.105-206.257q-14.565-15.713-14.565-27.981 0-21.561 32.627-26.781l292.499-42.546 131.084-265.092q11.067-23.91 28.555-23.91t28.555 23.91l131.084 265.092 292.499 42.546q32.627 5.22 32.627 26.781z" fill="#0061b0" /></svg>