<?xml version="1.0" standalone="no"?><!DOCTYPE svg PUBLIC "-//W3C//DTD SVG 1.1//EN" "http://www.w3.org/Graphics/SVG/1.1/DTD/svg11.dtd"><svg class="icon" width="48px" height="48.00px" viewBox="0 0 1024 1024" version="1.1" xmlns="http://www.w3.org/2000/svg"><path d="M512 0C229.205333 0 0 229.205333 0 512c0 282.737778 229.205333 512 512 512s512-229.262222 512-512C1024 229.205333 794.794667 0 512 0zM387.697778 316.984889l111.331556 0C472.405333 286.776889 447.032889 259.470222 423.082667 235.008l66.673778-48.014222c24.917333 20.024889 55.352889 47.786667 91.306667 83.342222-23.096889 15.985778-43.804444 31.573333-62.008889 46.648889l98.019556 0c23.552-37.319111 48.241778-80.896 74.012444-130.673778 45.795556 23.096889 75.776 38.001778 89.998222 44.657778-11.548444 14.222222-33.336889 42.894222-65.308444 86.016l94.663111 0L810.439111 397.653333l-173.340444 0c0 25.770667-0.455111 49.095111-1.308444 69.973333l193.308444 0 0 80.668444-199.338667 0c-0.910222 3.982222-1.763556 7.566222-2.673778 10.695111 65.308444 30.663111 126.008889 61.553778 181.987556 92.672l-57.344 84.024889c-56.433778-38.684444-110.250667-72.248889-161.336889-100.693333-29.752889 41.358222-74.695111 77.312-134.656 107.975111-25.770667-23.552-51.768889-46.648889-77.994667-69.347556 83.114667-34.247111 133.802667-76.003556 152.007111-125.326222l-166.684444 0L363.064889 467.683556l176.64 0c0.910222-20.423111 1.308444-43.804444 1.308444-69.973333L387.697778 397.710222 387.697778 316.984889zM275.740444 186.311111c33.336889 40.903111 65.536 83.569778 96.654222 128C347.477333 330.353778 320.170667 348.330667 290.360889 368.355556c-26.680889-42.211556-56.888889-86.641778-90.680889-133.347556L275.740444 186.311111zM812.373333 830.350222c-142.677333 0.455111-264.419556-0.227556-365.340444-1.991111-68.437333 0-118.897778-20.423111-151.324444-61.326222-37.774222 36.010667-64.682667 63.089778-80.668444 81.351111l-38.001778-105.358222c22.641778-19.114667 44.885333-37.546667 66.673778-55.352889L243.712 503.694222 183.068444 503.694222 183.068444 415.687111l152.689778 0 0 270.677333c32.881778 39.537778 76.913778 59.335111 131.982222 59.335111 63.544889 2.673778 188.472889 1.763556 374.670222-2.673778C829.496889 779.889778 819.484444 809.016889 812.373333 830.350222z" fill="#13227a" /></svg>