<?xml version="1.0" standalone="no"?><!DOCTYPE svg PUBLIC "-//W3C//DTD SVG 1.1//EN" "http://www.w3.org/Graphics/SVG/1.1/DTD/svg11.dtd"><svg class="icon" width="48px" height="48.00px" viewBox="0 0 1024 1024" version="1.1" xmlns="http://www.w3.org/2000/svg"><path d="M510.362746 968.231038l-13.712002-3.888478c-181.939842-51.573499-313.534126-141.724793-391.099031-268.10033C22.154092 560.350155 24.405316 432.030379 27.884481 237.913461c0.306985-19.647047 0.716299-40.010393 1.023284-61.192365 0.716299-54.438693 45.638453-98.849206 100.077146-98.849206l762.755671 0c54.541021 0 99.463176 44.410513 100.077146 98.951534l0 0c0.204657 19.44239 0.511642 38.168482 0.818627 56.280604 3.069851 195.754172 5.218747 325.097232-77.360248 462.831218C801.589287 885.549715 593.862696 944.490856 525.609673 963.830918L510.362746 968.231038zM128.984911 127.091836c-27.730988 0-50.550215 22.512241-50.8572 50.24323-0.306985 21.181973-0.61397 41.647647-1.023284 61.397022-3.274508 185.521335-5.525732 308.008394 70.401919 431.621065 106.933147 174.060558 299.412811 228.601579 362.651744 246.509044l0.306985 0.102328 1.739582-0.511642c63.648246-18.009793 257.355851-72.960128 361.01449-245.895073C948.430499 545.000899 946.588588 427.937244 943.518737 233.922654c-0.306985-18.21445-0.61397-37.04287-0.818627-56.48526l0 0c-0.306985-27.730988-23.22854-50.345558-50.959528-50.345558L128.984911 127.091836z" fill="#13227a" /><path d="M333.232337 683.246527 333.232337 457.7148c-12.074748 19.237734-21.898271 41.749975-36.326571 62.113321-4.604777-2.967523-12.688718-7.879285-21.795943-14.121315-8.083941-5.525732-14.530629-9.925852-19.44239-13.507345 38.27081-63.443589 84.318577-171.195363 109.90067-238.015789l48.912961 14.735285c-9.516538 31.107825-22.716898 64.67153-35.917258 95.984011l0 318.241231L333.232337 683.144199zM456.333367 440.421305 456.333367 271.886479l252.546418 0 0 168.534826L606.039772 440.421305l0 38.987109 141.110822 4.40012 0 43.284901-107.649445-4.40012c22.716898 34.893974 77.053263 74.188068 111.230938 96.393325-2.455881 3.581493-12.381733 5.832717-18.419107 15.451584-6.037374 9.618867-10.232837 16.270211-12.58639 19.851704-34.382332-23.637854-84.625562-61.192365-113.686819-105.602878L606.039772 683.246527l-48.708304 0L557.331468 548.787049c-30.596183 42.875587-81.555711 88.207055-119.110223 111.026282-9.925852-14.121315-20.670331-27.01469-28.8566-36.121915 32.540422-20.568002 89.332667-67.229739 113.175177-100.998101l-102.32837 0 0-43.284901 137.120016 0 0-38.987109L456.333367 440.421305zM503.19976 315.273708l0 83.704607 160.553213 0L663.752973 315.273708 503.19976 315.273708z"  /></svg>