<?xml version="1.0" standalone="no"?><!DOCTYPE svg PUBLIC "-//W3C//DTD SVG 1.1//EN" "http://www.w3.org/Graphics/SVG/1.1/DTD/svg11.dtd"><svg class="icon" width="32px" height="32.00px" viewBox="0 0 1024 1024" version="1.1" xmlns="http://www.w3.org/2000/svg"><path d="M85.385141 158.826858A53.148239 53.148239 0 0 1 138.725329 105.84924h266.594297V52.935604A53.105584 53.105584 0 0 1 458.681141 0.021967h106.680374c29.453338 0 53.318859 23.716229 53.318859 52.977619v52.998946h266.594297c29.43201 0 53.340187 23.716229 53.340188 52.977619v52.998947H85.385141V158.826858z m799.88953 158.826219v653.092046A53.190894 53.190894 0 0 1 831.913157 1023.722742H192.065516a53.148239 53.148239 0 0 1-53.340187-52.977619V264.824751h746.528015v52.828326z m-533.273905 105.997893a53.190894 53.190894 0 0 0-53.318859-52.998947A53.148239 53.148239 0 0 0 245.405703 423.629642v441.352191c0 29.17608 23.865522 52.892309 53.318859 52.892309s53.340187-23.716229 53.340187-52.892309V423.629642h-0.063983z m213.339421 0A53.190894 53.190894 0 0 0 512 370.630696a53.148239 53.148239 0 0 0-53.340187 52.977619v441.352191a53.190894 53.190894 0 0 0 53.318859 52.892309c29.43201 0 53.361515-23.716229 53.361515-52.892309V423.629642z m213.275438 0c0-29.282718-23.886849-52.998946-53.361515-52.998947s-53.318859 23.716229-53.318859 52.977619v441.352191a53.190894 53.190894 0 0 0 53.318859 52.892309c29.410683 0 53.340187-23.716229 53.340187-52.892309V423.629642z" fill="#707070" /></svg>